<svg xmlns="http://www.w3.org/2000/svg" viewBox="0 0 880.06 780.58"><defs><style>.cls-1,.cls-2{fill:#f3ea15;}.cls-1{opacity:0.35;}.cls-3{fill:#010101;fill-rule:evenodd;}</style></defs><g id="Layer_2" data-name="Layer 2"><g id="Layer_1-2" data-name="Layer 1"><rect class="cls-1" x="91.74" y="84.08" width="685.51" height="685.51" transform="translate(875.27 6.5) rotate(91.87)"/><rect class="cls-2" x="201.83" y="-68.72" width="199.75" height="575.13" transform="translate(360.93 -149.13) rotate(63.19)"/><rect class="cls-2" x="321.62" y="22.74" width="199.75" height="758.45" transform="translate(590.12 -155.52) rotate(63.19)"/><rect class="cls-2" x="484.91" y="281.99" width="199.75" height="560.74" transform="translate(822.91 -213.22) rotate(63.19)"/><path class="cls-3" d="M712.6,510.36c0-57.2-40.42-103.15-95.34-124.06a161.69,161.69,0,0,0,2.64-27.69c0-113.1-110.11-194.75-231.76-194.75-122.42,0-231.76,82.25-231.76,194.75a172.53,172.53,0,0,0,39.54,109.48c1,35.6-19.75,86.7-38.5,123.9,50.25-9.13,121.7-29.32,154.08-49.37a329.52,329.52,0,0,0,78.4,9.83c2.13,0,4.19-.26,6.33-.3,20.07,52.17,76.8,93.91,153,93.91A229.47,229.47,0,0,0,604,639.17c22.67,14,72.7,28.16,107.86,34.56C698.76,647.68,684.21,611.92,685,587a120.62,120.62,0,0,0,27.65-76.64Zm-73,94.65c-9.18-3.89-9.75-4.63-27.83-15.8-23.43,5.72-39,10.15-62.62,10.15-50.5,0-87.14-23.55-104.11-52.5,75.25-15.15,131.78-60.42,158.22-116.11,37.32,14.93,63,45,63,79.61,0,12.56-.35,26.84-27.14,59-.53,17.69-1,23.3.53,35.6ZM303.69,492.63c-18.66,11.59-27.1,18.4-69.62,32.08,10.1-37.06,8.25-55.21,7.69-74.19-7.37-8.9-39-39.63-39-91.91,0-81.63,83.18-148,185.41-148S573.55,277,573.55,358.61c0,70.75-70.2,147.12-183.65,147.12-38.22,0-67.3-8.44-86.21-13.1Zm154-82a9.35,9.35,0,0,1-11.84-5.93s-34.67-11.62-75.83,2l27,42a7.52,7.52,0,0,1-3.8,11.35c-5.75,1.93-13,4.31-18.4,6.1a11.69,11.69,0,0,1-3.87.65,12.33,12.33,0,0,1-9.18-4.15l-37.17-41c-20.24,6.39-43.16-1-50.8-20.05A36.45,36.45,0,0,1,271.12,388c0-13.56,7.58-27.42,24.06-35.53,82.48-40.49,95.67-85.66,95.67-85.66a9.34,9.34,0,1,1,17.73-5.91l54.95,138a9.35,9.35,0,0,1-5.89,11.84Zm39.1-47.35-14.23-6.05a62.41,62.41,0,0,0-33.07-81.67l6-14.25a77.86,77.86,0,0,1,41.28,102ZM472.1,352.86,458.22,347a35.89,35.89,0,0,0-19.05-47L445,286a51.05,51.05,0,0,1,27.06,66.82Z"/></g></g></svg>