<svg xmlns="http://www.w3.org/2000/svg" viewBox="0 0 747.32 239.01"><g id="Layer_2" data-name="Layer 2"><g id="Layer_1-2" data-name="Layer 1"><path d="M747.32,186.77A79.54,79.54,0,0,1,697,163.31a83.66,83.66,0,0,1-17.16-25.65,78.46,78.46,0,0,1-6.22-31.08V9.77L702.75,0V40.33h44.57V66.55H702.75v40a51.22,51.22,0,0,0,44.57,50.69Z"/><path d="M250.77,113.81A73.24,73.24,0,1,0,177.51,187H178a75.59,75.59,0,0,0,48.28-18.35h0L205.7,149.46h0a44.65,44.65,0,0,1-27.86,9.77h-.35a44.9,44.9,0,0,1-38.34-21.33l-6.23-10H250.77ZM134,99l1.32-3a47.61,47.61,0,0,1,20.49-22.57,46.66,46.66,0,0,1,19.68-5.61h4.34a48.69,48.69,0,0,1,19.77,5.8A45.85,45.85,0,0,1,209.85,81a48.19,48.19,0,0,1,4.35,4.9,43.15,43.15,0,0,1,3.56,5.41c.85,1.52,1.63,3.09,2.32,4.67l1.2,3Z"/><path d="M273.85,239l25.68-64L240.1,40.33h32l42.12,99.29,39.42-99.29H384.5L304.35,239h-30.5Z"/><path d="M448.89,187a73.23,73.23,0,0,1-28.46-5.74,80.06,80.06,0,0,1-23.32-15.79A80.48,80.48,0,0,1,381.4,141.9a76.93,76.93,0,0,1-5.49-28.39A73.41,73.41,0,0,1,381.47,85a78,78,0,0,1,15.77-23.5,77.19,77.19,0,0,1,23.28-15.68,74.8,74.8,0,0,1,57.06,0,80.19,80.19,0,0,1,23.29,15.77A78.41,78.41,0,0,1,516.55,85.1a74.8,74.8,0,0,1,0,56.88,78.1,78.1,0,0,1-15.77,23.53A73,73,0,0,1,448.89,187Zm0-117.64a44.22,44.22,0,1,0,44.2,44.24h0A44.26,44.26,0,0,0,448.89,69.31Z"/><path d="M596.53,187a64.34,64.34,0,0,1-64.32-64.36h0V40.33h29.46v82.24a34.91,34.91,0,0,0,69.79,0V40.33h29.45v82.24A64.47,64.47,0,0,1,596.55,187Z"/><polygon points="0 185.74 0 185.74 105.54 185.74 105.22 156.97 28.75 156.9 28.6 0 0 9.59 0 185.74"/></g></g></svg>