<svg xmlns="http://www.w3.org/2000/svg" viewBox="0 0 349.64 324.75"><defs><style>.cls-1,.cls-2{fill:#f3ea15;}.cls-1{opacity:0.35;}.cls-3{fill:#010101;}</style></defs><g id="Layer_2" data-name="Layer 2"><g id="Layer_1-2" data-name="Layer 1"><rect class="cls-1" x="39.94" y="16.34" width="286.16" height="286.16" transform="matrix(1, -0.08, 0.08, 1, -11.67, 14.48)"/><rect class="cls-2" x="42.02" y="17.65" width="83.38" height="240.08" transform="translate(57.83 -21.36) rotate(22.06)"/><rect class="cls-2" x="129.97" y="4.07" width="83.38" height="316.61" transform="translate(73.53 -52.58) rotate(22.06)"/><rect class="cls-2" x="225.36" y="50.93" width="83.38" height="234.07" transform="translate(82.61 -87.98) rotate(22.06)"/><path class="cls-3" d="M191.82,155.35c-5.1-13.29-19.34-22.19-31.82-19.86s-18.46,15-13.36,28.27c5.4,14,20.85,23,33.57,19.47C191.5,180.1,196.69,168,191.82,155.35Zm-15.7,16.55,1.12,2.79-2.36.54-1.06-2.65a16.69,16.69,0,0,1-7.8-.32l-.71-4.72a18.67,18.67,0,0,0,6.77.24l1.35-.49c2.41-1.31,1.67-4.69-1.9-5.48-2.65-.66-9.69-.18-12.31-6.71-1.47-3.69-.38-7.54,3.86-9.31l-1.16-2.9,2.35-.54,1.12,2.78a21.39,21.39,0,0,1,6.11-.21l.95,4.66a16,16,0,0,0-5.56-.1l-.65.19c-3.35,1-2.28,4.55.7,5.42,4.91,1.28,10.78,1.68,13.1,7.44C181.89,167.18,179.72,170.37,176.12,171.9Zm67.16-83.27C179.56,134.84,109.14,85,58.17,140L97,234.88c54.63-51.83,129.1-2.75,185.12-51.39ZM123.44,198.06c-7.6-5.34-18.68-8.75-26.82-8L85.52,163c5.29-6.35,9.53-17.59,10.91-27.74,1.73-.61,3.46-1.22,5.28-1.72,31.34-8.7,70.39.82,110.59-10.34,2.92-.81,5.69-1.82,8.48-2.81A48.41,48.41,0,0,0,242.26,130l12.28,30a64.92,64.92,0,0,0-10.31,24.31C208.16,195.25,164.45,183.32,123.44,198.06Z"/></g></g></svg>