<svg xmlns="http://www.w3.org/2000/svg" viewBox="0 0 351.44 351.44"><defs><style>.cls-1,.cls-2{fill:#f3ea15;}.cls-1{opacity:0.35;}.cls-3{fill:#010101;fill-rule:evenodd;}</style></defs><g id="Layer_2" data-name="Layer 2"><g id="Layer_1-2" data-name="Layer 1"><rect class="cls-1" x="32.64" y="32.64" width="286.16" height="286.16" transform="translate(52.51 -40.09) rotate(15.28)"/><rect class="cls-2" x="36.72" y="89.47" width="83.38" height="240.08" transform="translate(-46.44 23.89) rotate(-13.41)"/><rect class="cls-2" x="122.68" y="20.29" width="83.38" height="316.61" transform="translate(-36.93 42.97) rotate(-13.41)"/><rect class="cls-2" x="203.61" y="10.77" width="83.38" height="234.07" transform="translate(-22.95 60.36) rotate(-13.41)"/><path class="cls-3" d="M239.08,264.12H116.45a21.64,21.64,0,0,1-21.64-21.64V112.65A21.64,21.64,0,0,1,116.45,91H239.08Zm-14.43-28.85H120c-9.91,0-9.91,14.43,0,14.43H224.65Zm0-129.84H203v64.92l-14.42-11.16-14.43,11.16V105.43H116.45V220.84h108.2Z"/></g></g></svg>