<svg xmlns="http://www.w3.org/2000/svg" viewBox="0 0 367.37 325.85"><defs><style>.cls-1,.cls-2{fill:#f3ea15;}.cls-1{opacity:0.35;}.cls-3{fill:#010101;}</style></defs><g id="Layer_2" data-name="Layer 2"><g id="Layer_1-2" data-name="Layer 1"><rect class="cls-1" x="38.3" y="35.1" width="286.16" height="286.16" transform="translate(365.37 2.71) rotate(91.87)"/><rect class="cls-2" x="84.25" y="-28.69" width="83.38" height="240.08" transform="translate(150.67 -62.25) rotate(63.19)"/><rect class="cls-2" x="134.26" y="9.49" width="83.38" height="316.61" transform="translate(246.34 -64.92) rotate(63.19)"/><rect class="cls-2" x="202.42" y="117.71" width="83.38" height="234.07" transform="translate(343.51 -89.01) rotate(63.19)"/><path class="cls-3" d="M164.72,236.11a12.62,12.62,0,1,1-12.62-12.62A12.62,12.62,0,0,1,164.72,236.11Zm29.44-12.62a12.62,12.62,0,1,0,12.62,12.62A12.63,12.63,0,0,0,194.16,223.49Zm53-126.19-28.87,101H130.6l-24.71-58.89H199.8l-11.88,42.06H205.4L222,122.54H80.59l38.82,92.54H230.79l29.23-101h16.23L282.5,97.3Z"/></g></g></svg>