<svg xmlns="http://www.w3.org/2000/svg" viewBox="0 0 841.9 841.9"><defs><style>.cls-1,.cls-2{fill:#f3ea15;}.cls-1{opacity:0.35;}.cls-3{fill:#010101;}</style></defs><g id="Layer_2" data-name="Layer 2"><g id="Layer_1-2" data-name="Layer 1"><rect class="cls-1" x="78.2" y="78.2" width="685.51" height="685.51" transform="translate(125.78 -96.03) rotate(15.28)"/><rect class="cls-2" x="87.97" y="214.33" width="199.75" height="575.13" transform="translate(-111.25 57.23) rotate(-13.41)"/><rect class="cls-2" x="293.88" y="48.6" width="199.75" height="758.45" transform="translate(-88.46 102.95) rotate(-13.41)"/><rect class="cls-2" x="487.75" y="25.8" width="199.75" height="560.74" transform="translate(-54.97 144.58) rotate(-13.41)"/><path id="magnifier-10" class="cls-3" d="M457.5,361.79H274.17V338.88H457.5Zm0,45.84H274.17V384.71H457.5Zm-68.75,45.83H274.17V430.54H388.75Zm256,275L475.49,559.18A205.16,205.16,0,0,1,365.83,591c-113.91,0-206.25-92.34-206.25-206.25s92.34-206.25,206.25-206.25S572.08,270.8,572.08,384.71A205.14,205.14,0,0,1,540.3,494.37L709.58,663.65ZM365.83,545.13c88.45,0,160.42-72,160.42-160.42s-72-160.42-160.42-160.42-160.41,72-160.41,160.42S277.39,545.13,365.83,545.13Z"/></g></g></svg>