<svg xmlns="http://www.w3.org/2000/svg" viewBox="0 0 349.64 324.75"><defs><style>.cls-1,.cls-2{fill:#f3ea15;}.cls-1{opacity:0.35;}.cls-3{fill:#010101;}</style></defs><g id="Layer_2" data-name="Layer 2"><g id="Layer_1-2" data-name="Layer 1"><rect class="cls-1" x="39.94" y="16.34" width="286.16" height="286.16" transform="translate(-11.67 14.48) rotate(-4.39)"/><rect class="cls-2" x="42.02" y="17.65" width="83.38" height="240.08" transform="translate(57.83 -21.36) rotate(22.06)"/><rect class="cls-2" x="129.97" y="4.07" width="83.38" height="316.61" transform="translate(73.53 -52.58) rotate(22.06)"/><rect class="cls-2" x="225.36" y="50.93" width="83.38" height="234.07" transform="translate(82.61 -87.98) rotate(22.06)"/><path class="cls-3" d="M230.59,213.85c-16.79-26.26-40-49.87-41.16-82.42H175c1.24,37.36,25.17,61.21,42.67,88.57a3.19,3.19,0,0,1-2.71,4.62h-9.06L172,174.44H146.72C153,162.51,160,150,160.6,131.43H146.19C145,164,121.67,187.8,105,213.85A17.53,17.53,0,0,0,120.67,239h94.27a17.51,17.51,0,0,0,15.65-25.1ZM196.48,102.76a14.34,14.34,0,1,1-14.34-14.33A14.34,14.34,0,0,1,196.48,102.76ZM160.64,92a10.75,10.75,0,1,1-10.75-10.75A10.75,10.75,0,0,1,160.64,92Zm0,25.09a7.17,7.17,0,1,1-7.17-7.17A7.17,7.17,0,0,1,160.64,117.1Zm21.5-43A7.17,7.17,0,1,1,175,66.92,7.16,7.16,0,0,1,182.14,74.09Z"/></g></g></svg>