<svg xmlns="http://www.w3.org/2000/svg" viewBox="0 0 310.75 113.47"><defs><style>.cls-1{fill:#fdfeff;}</style></defs><g id="Layer_2" data-name="Layer 2"><g id="Layer_1-2" data-name="Layer 1"><g id="Layer_2-2" data-name="Layer 2"><g id="Lager_1" data-name="Lager 1"><g id="FullLogo"><g id="T"><path class="cls-1" d="M310.75,89.42a36.64,36.64,0,0,1-23.18-10.8,38.72,38.72,0,0,1-7.9-11.81,36.1,36.1,0,0,1-2.86-14.31V4.5L290.23,0V22h20.52V34.07H290.23V52.48a23.58,23.58,0,0,0,20.52,23.34Z"/></g><g id="E"><path class="cls-1" d="M85.58,55.83A33.72,33.72,0,1,0,51.91,89.54h.16a32.45,32.45,0,0,0,13.41-2.9,32.43,32.43,0,0,0,8.82-5.55h0l-9.47-8.85h0A20.56,20.56,0,0,1,52,76.74h-.16a20.67,20.67,0,0,1-17.65-9.82l-2.87-4.61H85.58ZM31.8,49l.61-1.4a21.93,21.93,0,0,1,9.43-10.39,21.5,21.5,0,0,1,9.06-2.58h2A22.39,22.39,0,0,1,62,37.3a21.12,21.12,0,0,1,4.74,3.44,22.59,22.59,0,0,1,2,2.26,19.45,19.45,0,0,1,1.64,2.49c.39.7.75,1.42,1.07,2.15L72,49Z"/></g><g id="I"><polygon class="cls-1" points="0 89.5 0 5.52 13.5 1.36 13.5 89.5 0 89.5"/></g><g id="Y"><path class="cls-1" d="M95.06,113.47,106.88,84,79.52,22H94.23l19.39,45.71L131.77,22H146L109.1,113.47h-14Z"/></g><g id="O"><path class="cls-1" d="M174.5,89.5a33.69,33.69,0,0,1-13.1-2.64,36.84,36.84,0,0,1-10.74-7.27,37.07,37.07,0,0,1-7.23-10.83,35.46,35.46,0,0,1-2.53-13.07,33.88,33.88,0,0,1,2.56-13.11,36,36,0,0,1,7.26-10.82,35.58,35.58,0,0,1,10.72-7.22,34.45,34.45,0,0,1,26.27,0,37,37,0,0,1,10.72,7.26,36.11,36.11,0,0,1,7.22,10.81,34.43,34.43,0,0,1,0,26.19,36,36,0,0,1-7.26,10.83A33.57,33.57,0,0,1,174.5,89.5Zm0-54.16a20.36,20.36,0,1,0,20.35,20.37h0A20.38,20.38,0,0,0,174.5,35.34Z"/></g><g id="U"><path class="cls-1" d="M242.47,89.51a29.62,29.62,0,0,1-29.61-29.63V22h13.56V59.86a16.07,16.07,0,0,0,32.13,0V22h13.56V59.86a29.68,29.68,0,0,1-29.63,29.65Z"/></g></g></g></g></g></g></svg>