<svg xmlns="http://www.w3.org/2000/svg" viewBox="0 0 367.37 325.85"><defs><style>.cls-1,.cls-2{fill:#f3ea15;}.cls-1{opacity:0.35;}.cls-3{fill:#010101;fill-rule:evenodd;}</style></defs><g id="Layer_2" data-name="Layer 2"><g id="Layer_1-2" data-name="Layer 1"><rect class="cls-1" x="38.3" y="35.1" width="286.16" height="286.16" transform="translate(365.37 2.71) rotate(91.87)"/><rect class="cls-2" x="84.25" y="-28.69" width="83.38" height="240.08" transform="translate(150.67 -62.25) rotate(63.19)"/><rect class="cls-2" x="134.26" y="9.49" width="83.38" height="316.61" transform="translate(246.34 -64.92) rotate(63.19)"/><rect class="cls-2" x="202.42" y="117.71" width="83.38" height="234.07" transform="translate(343.51 -89.01) rotate(63.19)"/><path class="cls-3" d="M102.2,161.67H242.51l-58.4,70.89V270.8L160.6,255.21V232.56Zm72.11,7.8H170.4v4.15c-7.62,1-11.7,5.8-11.7,11.11,0,9.5,11.16,11,14.81,12.64,5,2.22,4.05,6.82-.45,7.84-3.91.88-8.89-.66-12.64-2.11l-1.78,6.41a27.28,27.28,0,0,0,11.76,2.84v3.89h3.91v-4.11c6.5-.9,11.77-4.47,11.77-11.16,0-8.36-8.75-10.69-15.46-13.82-4.07-2.11-3.56-7.13,2.27-7.47a24.92,24.92,0,0,1,9.58,1.82l1.42-6.43a36.32,36.32,0,0,0-9.58-1.63Zm-72.1-15.59h26.32c-.13-28.52,13.13-16.12,13.13-38.81,0-8.77-5.75-13.52-13.14-13.52-10.93,0-18.53,10.39-8.19,29.82,3.4,6.39-3.62,7.9-11.16,9.64-6.54,1.49-7,4.68-7,10.18ZM235.54,141c-7.54-1.74-14.56-3.25-11.16-9.64,10.34-19.43,2.74-29.82-8.18-29.82-7.39,0-13.15,4.75-13.15,13.52,0,22.69,13.26,10.29,13.14,38.81H242.5v-2.69C242.51,145.69,242.08,142.5,235.54,141Zm-28.12,12.87H137.29v-3.63c0-7.31.58-11.53,9.28-13.54,9.85-2.26,19.55-4.28,14.88-12.84-13.83-25.37-3.94-39.76,10.91-39.76,14.56,0,24.71,13.85,10.91,39.76-4.53,8.52,4.83,10.54,14.87,12.84,8.72,2,9.3,6.24,9.3,13.57Z"/></g></g></svg>