<svg xmlns="http://www.w3.org/2000/svg" viewBox="0 0 351.44 351.44"><defs><style>.cls-1,.cls-2{fill:#f3ea15;}.cls-1{opacity:0.35;}.cls-3{fill:#010101;}</style></defs><g id="Layer_2" data-name="Layer 2"><g id="Layer_1-2" data-name="Layer 1"><rect class="cls-1" x="32.64" y="32.64" width="286.16" height="286.16" transform="translate(52.51 -40.09) rotate(15.28)"/><rect class="cls-2" x="36.72" y="89.47" width="83.38" height="240.08" transform="translate(-46.44 23.89) rotate(-13.41)"/><rect class="cls-2" x="122.68" y="20.29" width="83.38" height="316.61" transform="translate(-36.93 42.97) rotate(-13.41)"/><rect class="cls-2" x="203.61" y="10.77" width="83.38" height="234.07" transform="translate(-22.95 60.36) rotate(-13.41)"/><path class="cls-3" d="M163.68,95.61a80.11,80.11,0,1,1-80.11,80.11A80.2,80.2,0,0,1,163.68,95.61Zm0-16a96.13,96.13,0,1,0,96.14,96.13A96.13,96.13,0,0,0,163.68,79.59Zm44.13,111.68c-12.12,9.57-25.43,15.47-44.12,15.47s-32-5.9-44.13-15.47l-3.94,3.95c9,13.78,25.63,28.57,48.07,28.57s39-14.79,48.06-28.57Zm3.94-31.56-6.05,4.06a16,16,0,0,0-14-7.6,16.52,16.52,0,0,0-14,7.6l-6-4.06c2.25-6,9.66-16,20-16S209.48,153.72,211.75,159.71Zm-56.08,0-6,4.06a16,16,0,0,0-14-7.6,16.52,16.52,0,0,0-14,7.6l-6-4.06c2.25-6,9.65-16,20-16S153.4,153.72,155.67,159.71Z"/></g></g></svg>