<svg xmlns="http://www.w3.org/2000/svg" viewBox="0 0 639.23 306.01"><defs><style>.cls-1{fill:#ee4854;}</style></defs><g id="Layer_2" data-name="Layer 2"><g id="Layer_1-2" data-name="Layer 1"><path d="M39.33,120.48a76.14,76.14,0,0,1,36.73-7.73c24.55.85,38,13.3,38.57,37.73.6,25.59.41,51,.32,76.52,0,10.41-2.74,12.8-13,12.8H87.69c-9.09,0-11.92-2.77-12.11-11.91V159.38c0-10.6-5-15-15.72-14.53a35.84,35.84,0,0,0-5.56.53c-14.06,2.87-14.87,3.87-14.87,18.21v61.06c0,13-2.24,15.25-15.1,15.25H10.09C3.4,239.9.44,236.75,0,229.83V68.51C0,56.72,2.52,54.24,14.12,54.24H26.69c9.75,0,12.74,2.73,12.93,12.57.28,14.75,0,29.49,0,44.21A91.35,91.35,0,0,0,39.33,120.48Z"/><path d="M249.23,180.25c-.85,6.79-1.35,15.5-3.14,24a44.56,44.56,0,0,1-36.76,37.42,88.78,88.78,0,0,1-39.49-.51,42.86,42.86,0,0,1-33.51-31.82,112.5,112.5,0,0,1,0-62.69c6.29-21.5,22.73-33,46.81-33.86a113.53,113.53,0,0,1,26,1.6c22.74,4.56,35.63,20,38.55,45.12C248.38,165.88,248.6,172.05,249.23,180.25Zm-39.68.51c-.44-7-.69-11.8-1.13-16.51a39.61,39.61,0,0,0-1.51-7.3,15.73,15.73,0,0,0-16.69-12.86A15.35,15.35,0,0,0,174,156.67a88.18,88.18,0,0,0,0,43.07,15.25,15.25,0,0,0,16.73,12.36A15,15,0,0,0,206.41,200a182.72,182.72,0,0,0,3.14-19.31h0Z"/><path d="M500.73,161.2c1.73-13.14-1.19-17.2-13.86-16.6a244.68,244.68,0,0,0-30.72,4.56c-8.59,1.54-14.87-.63-16.07-7.3-1.95-11-1.19-20.43,7.64-23.07A119.39,119.39,0,0,1,511,115.64c19.05,4.56,28.29,17.17,28.29,37.73v72.82c0,5.5,0,11.16-6.53,13.3a18.22,18.22,0,0,1-20.35-5.6l-2-2.92a57.78,57.78,0,0,1-39.46,12.57c-31-1.13-48.76-30.65-35.31-58.73,6.29-13.36,18.87-17.57,31.86-19.65C478.63,163.49,489.73,162.46,500.73,161.2Zm.6,21.44c-7.52,1.13-14.12,1.76-20.53,3.15A13.64,13.64,0,0,0,468.91,199a14.47,14.47,0,0,0,8.55,16.29c6.29,2.45,19.65,0,22.74-4.28a5,5,0,0,0,.94-2.83c.19-8.27.19-16.5.19-25.65h0Z"/><path d="M276.18,117.15V100.9a10,10,0,0,1,7.51-10.82,199.77,199.77,0,0,1,19.53-5.47,9.07,9.07,0,0,1,11.88,9.71c.22,7,0,14,0,21.76h18.65c9.08.22,12.2,3.14,12.57,12.58.51,19.11-.53,20.18-19.43,20.18h-11a49.7,49.7,0,0,0-.6,5.16v40.34c0,12.57,3.78,16.41,16,17.29,10.72.79,13.64,3.15,13.64,11.89.38,13.92-2.45,18.64-13.64,19.3a106.06,106.06,0,0,1-26.57-1.35c-18.21-3.68-28-15.5-28.61-34.74-.54-16.79-.22-33.62-.29-50.31v-7.55h-11a9.42,9.42,0,0,1-10.15-8.61v-.85c-1.52-12.86.78-16.29,13-19.75Z"/><path d="M412.92,195.35c0,21.78.4,43.57,0,65.36A45.5,45.5,0,0,1,367.23,306a46.16,46.16,0,0,1-7.14-.59c-8.77-1.1-11.88-4.56-12-13.65v-8.08c.38-7.61,2.74-10.25,10.29-11.63,11.63-2.17,15.43-6.54,15.46-18.71V129.44c0-10.5,2.68-13.3,13.21-13.64h14.31c8.45.37,11.63,3.46,11.69,12v67.15Z"/><path d="M588.54,124.7a63.76,63.76,0,0,1,35.25-11.92c12.58,0,15.47,2.64,15.44,15.09v5.6c0,8.05-3.33,10.91-11.19,11.73a212.83,212.83,0,0,0-22,3.86c-4.88,1-6.73,4-6.64,9.44.38,22.73,0,45.27,0,67.88,0,11.1-2.42,13.42-13.64,13.64h-16.2a8.45,8.45,0,0,1-9.11-7.74,8,8,0,0,1,0-1.69V126a8.46,8.46,0,0,1,7.78-9.09h.39C576.47,115.61,584.71,114.38,588.54,124.7Z"/><path class="cls-1" d="M408.7,93.66c7.11-25.53,4.56-38.39-7.92-40.87,1.92,8.68,4.05,17.58-5.06,23.58-4.78,3.14-8.55,1.95-17-4.56-3.9,8-2.58,16-.79,24.56-12.13-2.11-21.69-7.14-26.12-18.87a27.85,27.85,0,0,1,6.28-31.06,77.76,77.76,0,0,1,9.43-8.15C381.16,28.05,383.8,18.11,376.6,2.7a20.85,20.85,0,0,1-.78-2.7,91.46,91.46,0,0,1,41.72,17.7c26.6,21.76,23.39,60.84-6,75.21A8.35,8.35,0,0,0,408.7,93.66Z"/></g></g></svg>