<svg xmlns="http://www.w3.org/2000/svg" viewBox="0 0 146.91 112.81"><g id="Layer_2" data-name="Layer 2"><g id="Dark"><g id="SmallLogo"><g id="E"><path d="M86.11,54.81A33.93,33.93,0,1,0,52.24,88.69h.17A32.57,32.57,0,0,0,65.9,85.77a32.57,32.57,0,0,0,8.87-5.58h0l-9.53-8.91h0a20.66,20.66,0,0,1-12.94,4.57h-.15A20.8,20.8,0,0,1,34.39,66l-2.88-4.64h54.6ZM32,48l.61-1.41a22.5,22.5,0,0,1,1.8-3.31,22.22,22.22,0,0,1,7.7-7.14,21.6,21.6,0,0,1,9.11-2.6h2a22.8,22.8,0,0,1,9.14,2.63,21.71,21.71,0,0,1,4.77,3.47,20.52,20.52,0,0,1,2,2.26,22.2,22.2,0,0,1,1.65,2.51,21.91,21.91,0,0,1,1.08,2.17l.6,1.4Z"/></g><g id="I"><polygon points="0 88.69 0 4.18 13.59 0 13.59 88.69 0 88.69"/></g><g id="Y"><polygon points="95.65 112.81 107.55 83.16 80.02 20.71 94.83 20.71 114.33 66.71 132.59 20.71 146.91 20.71 109.78 112.81 95.65 112.81"/></g></g></g></g></svg>