<svg xmlns="http://www.w3.org/2000/svg" viewBox="0 0 312.7 114.18"><defs><style>.cls-1{fill:#fff;}</style></defs><g id="Layer_2" data-name="Layer 2"><g id="White"><g id="FullLogo"><g id="T"><path class="cls-1" d="M312.7,90a36.81,36.81,0,0,1-23.32-10.87,38.71,38.71,0,0,1-7.95-11.88,36.45,36.45,0,0,1-2.88-14.4V4.52L292.05,0V22.09H312.7V34.28H292.05V52.81A23.72,23.72,0,0,0,312.7,76.29V90Z"/></g><g id="E"><path class="cls-1" d="M86.11,56.18a33.9,33.9,0,0,0-57.9-24.12,34,34,0,0,0,24,58h.17A32.72,32.72,0,0,0,65.9,87.15a32.37,32.37,0,0,0,8.87-5.59h0l-9.53-8.9h0a20.66,20.66,0,0,1-12.94,4.57h-.15a20.8,20.8,0,0,1-17.77-9.88L31.51,62.7h54.6ZM32,49.34l.61-1.4a22,22,0,0,1,9.5-10.45,21.31,21.31,0,0,1,9.11-2.6h2a22.63,22.63,0,0,1,9.14,2.62A21.71,21.71,0,0,1,67.14,41a20.62,20.62,0,0,1,2,2.27,21.2,21.2,0,0,1,1.65,2.5,21.91,21.91,0,0,1,1.08,2.17l.6,1.4Z"/></g><g id="I"><polygon class="cls-1" points="0 90.06 0 5.55 13.59 1.37 13.59 90.06 0 90.06"/></g><g id="Y"><polygon class="cls-1" points="95.65 114.18 107.55 84.53 80.02 22.08 94.83 22.08 114.33 68.08 132.59 22.08 146.91 22.08 109.78 114.18 95.65 114.18"/></g><g id="O"><path class="cls-1" d="M175.6,90.07a33.8,33.8,0,0,1-13.19-2.67,37,37,0,0,1-10.81-7.31,37.66,37.66,0,0,1-7.27-10.9A35.58,35.58,0,0,1,141.78,56a34.07,34.07,0,0,1,2.58-13.19,33.93,33.93,0,0,1,18.09-18.16,34.66,34.66,0,0,1,26.44,0A37.48,37.48,0,0,1,199.68,32a36.43,36.43,0,0,1,7.26,10.88,34.6,34.6,0,0,1,0,26.35,36.21,36.21,0,0,1-7.3,10.9A33.81,33.81,0,0,1,175.6,90.07Zm0-54.51A20.49,20.49,0,1,0,196.07,56,20.51,20.51,0,0,0,175.59,35.56Z"/></g><g id="U"><path class="cls-1" d="M244,90.07a29.81,29.81,0,0,1-29.8-29.83V22.08h13.65V60.24a16.17,16.17,0,0,0,32.33,0V22.08h13.65V60.24A29.86,29.86,0,0,1,244,90.07Z"/></g></g></g></g></svg>