<svg xmlns="http://www.w3.org/2000/svg" viewBox="0 0 351.44 351.44"><defs><style>.cls-1,.cls-2{fill:#f3ea15;}.cls-1{opacity:0.35;}.cls-3{fill:#010101;}</style></defs><g id="Layer_2" data-name="Layer 2"><g id="Layer_1-2" data-name="Layer 1"><rect class="cls-1" x="32.64" y="32.64" width="286.16" height="286.16" transform="translate(52.51 -40.09) rotate(15.28)"/><rect class="cls-2" x="36.72" y="89.47" width="83.38" height="240.08" transform="translate(-46.44 23.89) rotate(-13.41)"/><rect class="cls-2" x="122.68" y="20.29" width="83.38" height="316.61" transform="translate(-36.93 42.97) rotate(-13.41)"/><rect class="cls-2" x="203.61" y="10.77" width="83.38" height="234.07" transform="translate(-22.95 60.36) rotate(-13.41)"/><path class="cls-3" d="M231.84,105.22a24.22,24.22,0,0,0-16.07,16.1,24.24,24.24,0,0,0-16.11-16.09,24.2,24.2,0,0,0,16.09-16.1A24.25,24.25,0,0,0,231.84,105.22Zm-83,4.06a30,30,0,0,1,19.93,19.94,30,30,0,0,1,20-19.93A30,30,0,0,1,168.8,89.35,30,30,0,0,1,148.86,109.28ZM81,189.62a39.78,39.78,0,0,1,26.44,26.44,39.84,39.84,0,0,1,26.45-26.44,39.83,39.83,0,0,1-26.45-26.45A39.74,39.74,0,0,1,81,189.62Zm100.48-51a21.19,21.19,0,0,1,14.1,14.09,21.22,21.22,0,0,1,14.09-14.09,21.25,21.25,0,0,1-14.09-14.11A21.24,21.24,0,0,1,181.45,138.65ZM97.1,127.17,119,105.26l148,148-21.91,21.92Zm131.53,98.65-11,11,27.4,27.4,11-11Zm-93.18-71.23,11-11L119,116.21l-11,11Z"/></g></g></svg>