<svg xmlns="http://www.w3.org/2000/svg" viewBox="0 0 566.93 147.61"><g id="Layer_2" data-name="Layer 2"><g id="Layer_1-2" data-name="Layer 1"><path d="M76.7.07c-1,0-1.92-.07-2.89-.07h0c-1,0-1.9,0-2.85.07a73.81,73.81,0,1,0,5.79,0Zm29.22,88.82a45.42,45.42,0,1,1-43.78-76,39.69,39.69,0,1,0,55.49,55.58,45.07,45.07,0,0,1-11.71,20.4Zm8.26-43a11.36,11.36,0,1,1,0-2.32c0,.39,0,.77,0,1.16S114.19,45.5,114.18,45.89ZM85.85,16.34a28.2,28.2,0,0,1,17,5.68,22.71,22.71,0,0,0,0,45.41,28.14,28.14,0,0,1-17,5.69,28.39,28.39,0,1,1,0-56.78Zm-12,119.91A62.4,62.4,0,0,1,18.21,45.42a56.75,56.75,0,1,0,111.2,0A62.41,62.41,0,0,1,73.8,136.25Z"/><path d="M177.53,56.05a26.91,26.91,0,0,1,35.85,0q7.23,6.84,7.22,17.75t-7.22,17.76a26.91,26.91,0,0,1-35.85,0q-7.22-6.84-7.21-17.76T177.53,56.05Zm26.32,9.16a11.67,11.67,0,0,0-20,8.59,11.67,11.67,0,1,0,23.32,0A11.47,11.47,0,0,0,203.85,65.21Z"/><path d="M266.15,77.78q0,9.64-5.12,15T245.4,98.2q-10.52,0-15.64-5.39t-5.12-15V50.22h13.68V77.44c0,5.31,2.36,8,7.08,8s7.07-2.64,7.07-8V50.22h13.68Z"/><path d="M306.25,50.22V61.94H294.46V97.39H281.65V61.94H269.86V50.22Z"/><path d="M342.1,61.94h-19v7.28h15.57V80.68H323.1V97.39H310.29V50.22H342.1Z"/><path d="M387.33,77.78q0,9.64-5.13,15T366.57,98.2q-10.51,0-15.64-5.39t-5.12-15V50.22H359.5V77.44c0,5.31,2.36,8,7.07,8s7.08-2.64,7.08-8V50.22h13.68Z"/><path d="M439.56,50.22V97.39h-10L407.34,72.05h-.13V97.39H394.4V50.22h10l22.25,25.34h.13V50.22Z"/><path d="M492.12,50.22V97.39h-10L459.91,72.05h-.14V97.39H447V50.22h10l22.25,25.34h.13V50.22Z"/><path d="M512.34,85.67H530.6V97.39H499.54V50.22h30.05V61.94H512.34v5.6H527.5V78.66H512.34Z"/><path d="M549.14,50.22V85.67h17.79V97.39h-30.6V50.22Z"/></g></g></svg>