<svg xmlns="http://www.w3.org/2000/svg" viewBox="0 0 667.86 151.71"><defs><style>.cls-1{opacity:0;}.cls-2{fill-rule:evenodd;}</style></defs><g id="Layer_2" data-name="Layer 2"><g id="Layer_1-2" data-name="Layer 1"><g id="Pipedrive_full_logo_dark" data-name="Pipedrive full logo dark"><g id="Pipedrive_full_logo" data-name="Pipedrive full logo"><g id="Logo"><g id="Clip-8"><path id="path-3" class="cls-2" d="M127.05,96.38c0,1.32.5,1.85,1.82,1.85h8.19v20.88H115.78c-8.53,0-12.52-4.06-12.52-12.81V55.49c0-1.39-.44-1.84-1.82-1.84H93.25V32.58H114.5c8.43,0,12.55,4.2,12.55,12.81Z"/></g><g id="Clip-11"><path id="path-5" class="cls-2" d="M184.31,100.17c9.51,0,19.1-7.41,19.1-24,0-14.54-7.54-24.31-18.77-24.31-9.16,0-18.94,6.43-18.94,24.48C165.7,87.81,171.54,100.17,184.31,100.17Zm4.85-69.55c22.94,0,38.36,18.18,38.36,45.23,0,26.64-16.24,45.23-39.49,45.23a31.48,31.48,0,0,1-21.88-8.18c0,.81,0,1.72,0,2.7v36.11H142.41V55.49c0-1.4-.45-1.84-1.83-1.84h-8.17V32.58h20c9.18,0,11.52,4.67,12,8.28C168.08,36.68,175.79,30.62,189.16,30.62Z"/></g><g id="Clip-14"><path id="path-7" class="cls-2" d="M254.33,63.37h31.58c-1-7.81-6.49-13.31-13.64-13.31C263.35,50.06,256.9,54.88,254.33,63.37Zm17.94-32.74c22.84,0,38.19,16.53,38.19,41.15,0,2.49-.46,7.6-.51,7.81l-.13,1.58H253.44C255.5,92.68,264.22,100,276.13,100c12.42,0,21.81-8.74,21.92-8.82l1.53-1.47,10.36,17.34-.95,1a51.24,51.24,0,0,1-34.29,13c-26.64,0-46-19-46-45.22C228.74,49.23,246.65,30.63,272.27,30.63Z"/></g><g id="Clip-17"><path id="path-9" class="cls-2" d="M354.54,100.17c9.14,0,18.93-6.41,18.93-24.47,0-11.88-5.76-23.84-18.61-23.84-11.33,0-18.95,9.63-18.95,24C335.91,90.62,343.23,100.17,354.54,100.17Zm42.39-3.79c0,1.32.51,1.85,1.83,1.85h8v20.88h-20.6c-8.9,0-11.29-4.73-11.77-8.46-3.7,4.28-11.26,10.43-24.37,10.43-22.95,0-38.37-18.17-38.37-45.23,0-26.63,16.09-45.23,39.16-45.23,11.8,0,18.65,4.21,22.16,7.4V22.92c0-1.4-.44-1.84-1.82-1.84H363V0h21.25c8.55,0,12.71,4.2,12.71,12.81Z"/></g><g id="Clip-20"><path id="path-11" class="cls-2" d="M459.67,31.44a26.81,26.81,0,0,1,4,.34l1.45.25V55.88l-2-.3a34.58,34.58,0,0,0-4.75-.3c-7.69,0-17.2,4.25-20.78,16.19a49.15,49.15,0,0,0-1.7,13v34.62H412.13V55.49c0-1.4-.46-1.84-1.84-1.84h-8.17V32.58h20.44c8.42,0,12.71,4,12.71,11.83v2C440.67,37.2,449.78,31.44,459.67,31.44Z"/></g><g id="Clip-23"><path id="path-13" class="cls-2" d="M499,96.38c0,1.32.51,1.85,1.83,1.85H509v20.88H487.71c-8.55,0-12.54-4.06-12.54-12.81V55.49c0-1.39-.44-1.84-1.83-1.84H467.2V32.58h19.22c8.43,0,12.53,4.2,12.53,12.81Z"/></g><g id="Clip-26"><path id="path-15" class="cls-2" d="M588.71,32.58V53.65h-3.65c-1.86,0-2.48.64-2.91,1.81l-24,63.65H531.41l-24-63.65c-.44-1.17-1-1.81-2.89-1.81H501V32.58h13.49c7.51,0,11.35,2.52,13.73,9l15.5,43.67c.59,1.62,1.12,3.47,1.57,5.21.43-1.74.93-3.56,1.46-5.18l15.5-43.69c2.36-6.37,6.33-9,13.74-9Z"/></g><g id="Clip-29"><path id="path-17" class="cls-2" d="M611.71,63.37h31.58c-1-7.81-6.47-13.31-13.65-13.31C620.74,50.06,614.32,54.88,611.71,63.37Zm17.93-32.74c22.86,0,38.22,16.53,38.22,41.15,0,2.49-.48,7.6-.51,7.81l-.13,1.58h-56.4C612.89,92.68,621.61,100,633.53,100c12.37,0,21.81-8.74,21.89-8.82L657,89.73l10.34,17.34-1,1a51.16,51.16,0,0,1-34.3,13c-26.63,0-45.94-19-45.94-45.22C586.13,49.23,604,30.63,629.64,30.63Z"/></g><g id="Clip-32"><polygon id="path-19" class="cls-2" points="104.23 0.01 125.42 0.01 125.42 22.54 104.23 22.54 104.23 0.01"/></g><g id="Clip-35"><polygon id="path-21" class="cls-2" points="476.13 0.01 497.34 0.01 497.34 22.54 476.13 22.54 476.13 0.01"/></g><g id="Clip-5"><path id="path-23" class="cls-2" d="M33.3,76.34c0,11.47,5.82,23.83,18.62,23.83,9.49,0,19.08-7.41,19.08-24,0-14.54-7.54-24.31-18.77-24.31C43.08,51.86,33.3,58.29,33.3,76.34ZM56.74,30.62c22.95,0,38.38,18.18,38.38,45.23,0,26.64-16.26,45.23-39.49,45.23a31.53,31.53,0,0,1-21.89-8.18c0,.81,0,1.72,0,2.7v36.11H10V55.49c0-1.4-.45-1.84-1.83-1.84H0V32.58H20c9.18,0,11.53,4.67,12,8.28C35.66,36.68,43.39,30.62,56.74,30.62Z"/></g></g></g></g></g></g></svg>