<svg xmlns="http://www.w3.org/2000/svg" viewBox="0 0 351.44 351.44"><defs><style>.cls-1,.cls-2{fill:#f3ea15;}.cls-1{opacity:0.35;}.cls-3{fill:#010101;}</style></defs><g id="Layer_2" data-name="Layer 2"><g id="Layer_1-2" data-name="Layer 1"><rect class="cls-1" x="32.64" y="32.64" width="286.16" height="286.16" transform="translate(52.51 -40.09) rotate(15.28)"/><rect class="cls-2" x="36.72" y="89.47" width="83.38" height="240.08" transform="translate(-46.44 23.89) rotate(-13.41)"/><rect class="cls-2" x="122.68" y="20.29" width="83.38" height="316.61" transform="translate(-36.93 42.97) rotate(-13.41)"/><rect class="cls-2" x="203.61" y="10.77" width="83.38" height="234.07" transform="translate(-22.95 60.36) rotate(-13.41)"/><path class="cls-3" d="M245.43,160.38c-7.19,12-18.42,24.28-32.43,23.78-3.27,5.59-6.74,13.27-10.6,22.18L192,210.72c7.41-18.54,17.66-39.26,29.27-55.36-5.3,4.19-13.82,13-21.07,22-8.69-14.47-2.37-29.21,7.7-41a19.89,19.89,0,0,0,4.76,11.68,40.06,40.06,0,0,1,1.54-18.61A96.33,96.33,0,0,1,231,115.54,18,18,0,0,0,233,126.31c.19-3.88,1.77-11.32,4.12-14.56A58.79,58.79,0,0,1,268,99.91c-.64,7.7-3.45,20.38-8.11,28.53-4.07,3.2-9.66,5.38-14.17,6.59a35.25,35.25,0,0,0,11.82,0,135.82,135.82,0,0,1-7.9,18c-5.37,3.7-12.49,5.79-17.43,6.53C235.8,161.05,242.22,161.51,245.43,160.38ZM135.88,190.5l5.11,6.18,37.77-22.09-5.28-6.08ZM191,188.62l-5.29-6.08-38,22.23,5.1,6.18Zm37,0a33.3,33.3,0,0,1-10.18,3.15c-.95,1.83-1.94,3.91-3,6.12l2.36,2.71c4.93,5.47,3.63,13.48-3,17.72-6.12,3.93-42.27,26.72-50.54,31.93a28.35,28.35,0,0,0-6.54-15.41c-3.71-4.41-48.4-58.38-59.54-72.65-3.72-4.75-4.56-9.85-2.34-14.37a12.94,12.94,0,0,1,11.32-7.27,12.39,12.39,0,0,1,12.26,9.62c1.27,5.07-.28,9.74-4.93,13.34l10.52,12.85,61.7-35.19A27.27,27.27,0,0,0,169.92,92c-9.4,0-6.27-.13-75.7,35.42A27.9,27.9,0,0,0,78,152.76a31.87,31.87,0,0,0,7,19.69c11.29,14.19,59.84,72.69,60.28,73.26a12.65,12.65,0,1,1-22.39,10.63c-1.23-5,.1-9.56,4.78-13.09L117.6,231c-6.51,5.27-10.11,11.84-10.9,19.33a28.65,28.65,0,0,0,43.17,27.57l74.61-47.06a28.08,28.08,0,0,0,11.81-22.93,25,25,0,0,0-5.45-15.86ZM165.21,109A11.53,11.53,0,0,1,170,108a10.92,10.92,0,0,1,9.84,6,11.2,11.2,0,0,1-4.34,15.14l-40.34,22.85a28.43,28.43,0,0,0-11.51-21.62ZM181.81,215l2.86-7.17,2-4.82-27.3,16,5.1,6.18Z"/></g></g></svg>