<svg xmlns="http://www.w3.org/2000/svg" viewBox="0 0 321.38 326.73"><defs><style>.cls-1,.cls-2{fill:#f3ea15;}.cls-1{opacity:0.35;}.cls-3{fill:#010101;}</style></defs><g id="Layer_2" data-name="Layer 2"><g id="Layer_1-2" data-name="Layer 1"><rect class="cls-1" x="23.31" y="17.36" width="286.16" height="286.16" transform="translate(-13.33 15.09) rotate(-4.99)"/><rect class="cls-2" x="22.31" y="35.83" width="83.38" height="240.08" transform="translate(31.17 -9.4) rotate(11.09)"/><rect class="cls-2" x="113.34" y="5.06" width="83.38" height="316.61" transform="translate(34.31 -26.77) rotate(11.09)"/><rect class="cls-2" x="208.05" y="33.67" width="83.38" height="234.07" transform="translate(33.64 -45.21) rotate(11.09)"/><path class="cls-3" d="M182.86,95.91l38.59,66.83-121.4,29.51a43.38,43.38,0,0,0-13.66,5.53l-2.08-3.6a46.86,46.86,0,0,0,11.24-9.09Zm3-24-100.84,103c-5.64,6-10.66,8.95-17,8.95a28.83,28.83,0,0,1-7.3-1.07L85,224.7c2.36-10,7.45-15.64,18.37-18.18l140.55-34.18Zm2.83,127.76L184.47,219a9.75,9.75,0,0,1-7.05,7.06l-27,7.09a9.67,9.67,0,0,1-9.32-2.57l-14.42-15.67,14.7-3.62,5.92,7.05a6.45,6.45,0,0,0,6.18,1.7l14.63-3.89a6.42,6.42,0,0,0,4.68-4.69l1.48-8.29ZM268.59,96.44,244,111.21l-6.92-11.55,24.6-14.76ZM228.33,85.81l-12.22-5.64L228.4,53.48l12.22,5.65Zm51.46,56.39-29.32-1.6.74-13.45,29.34,1.6Z"/></g></g></svg>