<svg xmlns="http://www.w3.org/2000/svg" viewBox="0 0 349.64 324.75"><defs><style>.cls-1,.cls-2{fill:#f3ea15;}.cls-1{opacity:0.35;}.cls-3{fill:#010101;}</style></defs><g id="Layer_2" data-name="Layer 2"><g id="Layer_1-2" data-name="Layer 1"><rect class="cls-1" x="39.94" y="16.34" width="286.16" height="286.16" transform="translate(-11.67 14.48) rotate(-4.39)"/><rect class="cls-2" x="42.02" y="17.65" width="83.38" height="240.08" transform="translate(57.83 -21.36) rotate(22.06)"/><rect class="cls-2" x="129.97" y="4.07" width="83.38" height="316.61" transform="translate(73.53 -52.58) rotate(22.06)"/><rect class="cls-2" x="225.36" y="50.93" width="83.38" height="234.07" transform="translate(82.61 -87.98) rotate(22.06)"/><path class="cls-3" d="M119.39,205v15.17H104.22V205Zm15.16-15.16H89.06v45.49h45.49ZM180,182.28v37.91H164.88V182.28Zm15.16-15.17H149.71v68.24H195.2ZM240.69,152v68.24H225.53V152Zm15.17-15.16H210.37v98.56h45.49Zm0-83.4-45.49,9.25,13,13-51.94,51.05-22.75-22.76L89.24,163l10.69,10.75,48.73-48.45L171.34,148,234.11,86.3l12.64,12.58Z"/></g></g></svg>