<svg xmlns="http://www.w3.org/2000/svg" viewBox="0 0 367.37 325.85"><defs><style>.cls-1,.cls-2{fill:#f3ea15;}.cls-1{opacity:0.35;}.cls-3{fill:#010101;fill-rule:evenodd;}</style></defs><g id="Layer_2" data-name="Layer 2"><g id="Layer_1-2" data-name="Layer 1"><rect class="cls-1" x="38.3" y="35.1" width="286.16" height="286.16" transform="translate(365.37 2.71) rotate(91.87)"/><rect class="cls-2" x="84.25" y="-28.69" width="83.38" height="240.08" transform="translate(150.67 -62.25) rotate(63.19)"/><rect class="cls-2" x="134.26" y="9.49" width="83.38" height="316.61" transform="translate(246.34 -64.92) rotate(63.19)"/><rect class="cls-2" x="202.42" y="117.71" width="83.38" height="234.07" transform="translate(343.51 -89.01) rotate(63.19)"/><path class="cls-3" d="M256.49,241.59H95.33V152.44l13.43-9.77V93.85h134.3v48.84l13.43,9.75Zm-13.43-13.43v-49.8l-67.15,46.69-67.15-46.69v49.8ZM122.19,171.27v-64H229.63v64L175.91,208Zm54.93-53.38a3,3,0,1,1,5.61-1.86l17.37,43.6a3,3,0,1,1-5.6,1.87,41.26,41.26,0,0,0-24,.65l8.55,13.29a2.36,2.36,0,0,1-1.21,3.57L172.05,181l-1.22.2a3.9,3.9,0,0,1-2.91-1.31l-11.75-13c-6.39,2-13.64-.32-16-6.34a11.76,11.76,0,0,1-.84-4.34c0-4.29,2.4-8.67,7.61-11.23C173,132.17,177.12,117.89,177.12,117.89Zm18.52,2.79a19.72,19.72,0,0,1,10.46,25.81l4.5,1.91a24.61,24.61,0,0,0-13.06-32.23Zm-3.25,7.7a11.34,11.34,0,0,1,6,14.86l4.39,1.86A16.12,16.12,0,0,0,194.25,124Z"/></g></g></svg>