<svg xmlns="http://www.w3.org/2000/svg" viewBox="0 0 769.88 782.71"><defs><style>.cls-1,.cls-2{fill:#f3ea15;}.cls-1{opacity:0.35;}.cls-3{fill:#010101;}</style></defs><g id="Layer_2" data-name="Layer 2"><g id="Layer_1-2" data-name="Layer 1"><rect class="cls-1" x="55.84" y="41.58" width="685.51" height="685.51" transform="translate(-31.94 36.15) rotate(-4.99)"/><rect class="cls-2" x="53.44" y="85.83" width="199.75" height="575.13" transform="translate(74.67 -22.51) rotate(11.09)"/><rect class="cls-2" x="271.52" y="12.13" width="199.75" height="758.45" transform="translate(82.19 -64.12) rotate(11.09)"/><rect class="cls-2" x="498.39" y="80.65" width="199.75" height="560.74" transform="translate(80.6 -108.31) rotate(11.09)"/><path class="cls-3" d="M647.26,529.1v23h-92v-23H574.5c5.94,0,9.31-4.09,7.38-9.7L571,487.88H519.72L506.5,451.33h52.76L528,357.6l-26.53,79.34-20.21-57.43,21.18-57.31h51.08L623.2,518c2.55,7.24,5.6,11.12,13.28,11.12Zm-137.93-23h23v46H371.39v-46h12.23a15.4,15.4,0,0,0,14.56-20.39l-18.76-48.57H236.15l-18.74,48.57A15.4,15.4,0,0,0,232,506.11h24.49v46H95.52v-46h9.89a32.18,32.18,0,0,0,30.34-21.49L262.36,138.29h90.85l126.6,346.33C484.34,497.49,495.67,506.11,509.33,506.11ZM259.07,368.18H356.5L304.56,225.67Z"/></g></g></svg>